<svg width="263" height="103" viewBox="0 0 263 103" fill="none" xmlns="http://www.w3.org/2000/svg">
<g filter="url(#filter0_d)">
<rect x="4" y="2" width="255" height="95" rx="8" fill="white"/>
<rect x="4.5" y="2.5" width="254" height="94" rx="7.5" stroke="#E4EDF4"/>
</g>
<path d="M15.96 43.628C16.5013 43.404 17.0613 43.152 17.64 42.872C18.2373 42.5733 18.816 42.256 19.376 41.92C19.936 41.5653 20.468 41.2013 20.972 40.828C21.4947 40.436 21.9613 40.0253 22.372 39.596H25.284V59H21.112V45.028C20.552 45.4013 19.9267 45.7467 19.236 46.064C18.5453 46.3627 17.8733 46.624 17.22 46.848L15.96 43.628ZM44.7541 53.596C44.7541 54.436 44.6047 55.2107 44.3061 55.92C44.0261 56.6107 43.5967 57.2173 43.0181 57.74C42.4394 58.2627 41.7114 58.6733 40.8341 58.972C39.9754 59.252 38.9767 59.392 37.8381 59.392C36.5314 59.392 35.4394 59.2147 34.5621 58.86C33.7034 58.4867 33.0034 58.0293 32.4621 57.488C31.9394 56.9467 31.5661 56.3587 31.3421 55.724C31.1181 55.0707 31.0061 54.4733 31.0061 53.932C31.0061 53.372 31.0807 52.8587 31.2301 52.392C31.3794 51.9253 31.5847 51.5053 31.8461 51.132C32.1074 50.74 32.3967 50.3853 32.7141 50.068C33.0501 49.7507 33.4047 49.452 33.7781 49.172C32.9754 48.5187 32.3781 47.8747 31.9861 47.24C31.6127 46.6053 31.4261 45.7933 31.4261 44.804C31.4261 44.0573 31.5754 43.3387 31.8741 42.648C32.1914 41.9573 32.6301 41.36 33.1901 40.856C33.7501 40.3333 34.4221 39.9227 35.2061 39.624C36.0087 39.3067 36.8954 39.148 37.8661 39.148C39.0047 39.148 39.9754 39.316 40.7781 39.652C41.5994 39.9693 42.2714 40.38 42.7941 40.884C43.3167 41.388 43.6901 41.9573 43.9141 42.592C44.1567 43.208 44.2781 43.824 44.2781 44.44C44.2781 45.336 44.0354 46.176 43.5501 46.96C43.0834 47.7253 42.4954 48.332 41.7861 48.78C42.8501 49.4707 43.6061 50.1987 44.0541 50.964C44.5207 51.7107 44.7541 52.588 44.7541 53.596ZM35.0661 53.764C35.0661 53.988 35.1127 54.24 35.2061 54.52C35.3181 54.7813 35.4861 55.024 35.7101 55.248C35.9341 55.472 36.2234 55.6587 36.5781 55.808C36.9327 55.9573 37.3621 56.032 37.8661 56.032C38.8367 56.032 39.5461 55.7987 39.9941 55.332C40.4421 54.8653 40.6661 54.3427 40.6661 53.764C40.6661 53.3347 40.5634 52.952 40.3581 52.616C40.1714 52.28 39.9101 51.9907 39.5741 51.748C39.2381 51.4867 38.8367 51.2627 38.3701 51.076C37.9221 50.8707 37.4367 50.684 36.9141 50.516C36.3914 50.908 35.9527 51.3653 35.5981 51.888C35.2434 52.4107 35.0661 53.036 35.0661 53.764ZM40.2461 44.552C40.2461 44.3467 40.1994 44.132 40.1061 43.908C40.0314 43.6653 39.8914 43.4413 39.6861 43.236C39.4994 43.0307 39.2567 42.8627 38.9581 42.732C38.6594 42.5827 38.2954 42.508 37.8661 42.508C37.4554 42.508 37.1007 42.5733 36.8021 42.704C36.5034 42.8347 36.2514 43.012 36.0461 43.236C35.8594 43.4413 35.7194 43.6653 35.6261 43.908C35.5327 44.1507 35.4861 44.384 35.4861 44.608C35.4861 45.2053 35.7007 45.7653 36.1301 46.288C36.5781 46.8107 37.3341 47.2587 38.3981 47.632C38.9954 47.2587 39.4527 46.8293 39.7701 46.344C40.0874 45.8587 40.2461 45.2613 40.2461 44.552ZM51.7361 54.744C51.7735 55.192 51.7921 55.5093 51.7921 55.696C51.8108 55.8827 51.8201 56.0413 51.8201 56.172C51.8201 56.732 51.7641 57.3293 51.6521 57.964C51.5588 58.58 51.4188 59.2053 51.2321 59.84C51.0455 60.4747 50.8121 61.1093 50.5321 61.744C50.2521 62.3787 49.9348 62.9853 49.5801 63.564L46.3041 62.752C46.7335 61.52 47.0321 60.3627 47.2001 59.28C47.3681 58.1973 47.4521 57.3013 47.4521 56.592C47.4521 56.48 47.4428 56.34 47.4241 56.172C47.4241 55.9853 47.4148 55.7987 47.3961 55.612C47.3961 55.4253 47.3868 55.248 47.3681 55.08C47.3681 54.912 47.3681 54.8 47.3681 54.744H51.7361ZM59.1028 59.42C58.5988 59.42 58.0668 59.3827 57.5068 59.308C56.9468 59.252 56.4054 59.168 55.8828 59.056C55.3601 58.944 54.8841 58.8227 54.4548 58.692C54.0254 58.5613 53.6894 58.44 53.4468 58.328L54.2588 54.856C54.7441 55.0613 55.3601 55.2853 56.1068 55.528C56.8721 55.752 57.8148 55.864 58.9348 55.864C60.2228 55.864 61.1654 55.6213 61.7628 55.136C62.3601 54.6507 62.6588 53.9973 62.6588 53.176C62.6588 52.672 62.5468 52.252 62.3228 51.916C62.1174 51.5613 61.8281 51.2813 61.4548 51.076C61.0814 50.852 60.6334 50.7027 60.1107 50.628C59.6068 50.5347 59.0654 50.488 58.4868 50.488H56.8628V47.128H58.7108C59.1214 47.128 59.5134 47.0907 59.8868 47.016C60.2788 46.9413 60.6241 46.82 60.9228 46.652C61.2214 46.4653 61.4548 46.2227 61.6228 45.924C61.8094 45.6067 61.9028 45.2147 61.9028 44.748C61.9028 44.3933 61.8281 44.0853 61.6788 43.824C61.5294 43.5627 61.3334 43.348 61.0908 43.18C60.8668 43.012 60.5961 42.8907 60.2788 42.816C59.9801 42.7227 59.6721 42.676 59.3548 42.676C58.5521 42.676 57.8054 42.7973 57.1148 43.04C56.4428 43.2827 55.8268 43.5813 55.2668 43.936L53.7828 40.884C54.0814 40.6973 54.4268 40.5013 54.8188 40.296C55.2294 40.0907 55.6774 39.904 56.1628 39.736C56.6481 39.568 57.1614 39.428 57.7028 39.316C58.2628 39.204 58.8508 39.148 59.4668 39.148C60.6054 39.148 61.5854 39.288 62.4068 39.568C63.2468 39.8293 63.9374 40.212 64.4788 40.716C65.0201 41.2013 65.4214 41.78 65.6828 42.452C65.9441 43.1053 66.0748 43.824 66.0748 44.608C66.0748 45.3733 65.8601 46.12 65.4308 46.848C65.0014 47.5573 64.4228 48.0987 63.6948 48.472C64.7028 48.8827 65.4774 49.4987 66.0188 50.32C66.5788 51.1227 66.8587 52.0933 66.8587 53.232C66.8587 54.128 66.7094 54.9587 66.4108 55.724C66.1121 56.4707 65.6454 57.124 65.0108 57.684C64.3761 58.2253 63.5641 58.6547 62.5748 58.972C61.6041 59.2707 60.4468 59.42 59.1028 59.42ZM76.3048 49.872C75.8941 49.872 75.4555 49.9093 74.9888 49.984C74.5221 50.0587 74.1581 50.1613 73.8968 50.292C73.8968 50.3667 73.8875 50.4787 73.8688 50.628C73.8688 50.7773 73.8688 50.908 73.8688 51.02C73.8688 51.692 73.9155 52.3267 74.0088 52.924C74.1021 53.5213 74.2608 54.044 74.4848 54.492C74.7088 54.94 75.0075 55.2947 75.3808 55.556C75.7541 55.7987 76.2208 55.92 76.7808 55.92C77.2475 55.92 77.6395 55.8267 77.9568 55.64C78.2928 55.4347 78.5635 55.1827 78.7688 54.884C78.9928 54.5853 79.1515 54.2587 79.2448 53.904C79.3568 53.5307 79.4128 53.176 79.4128 52.84C79.4128 51.888 79.1701 51.16 78.6848 50.656C78.2181 50.1333 77.4248 49.872 76.3048 49.872ZM76.8368 46.624C78.0501 46.624 79.0768 46.792 79.9168 47.128C80.7755 47.4453 81.4755 47.884 82.0168 48.444C82.5581 49.004 82.9501 49.6573 83.1928 50.404C83.4355 51.1507 83.5568 51.944 83.5568 52.784C83.5568 53.5307 83.4168 54.296 83.1368 55.08C82.8755 55.864 82.4648 56.5733 81.9048 57.208C81.3635 57.8427 80.6635 58.3653 79.8048 58.776C78.9648 59.1867 77.9661 59.392 76.8088 59.392C74.4755 59.392 72.7021 58.6547 71.4888 57.18C70.2755 55.7053 69.6688 53.6707 69.6688 51.076C69.6688 49.2093 69.9581 47.5573 70.5368 46.12C71.1155 44.6827 71.9368 43.4787 73.0008 42.508C74.0835 41.5187 75.3808 40.772 76.8928 40.268C78.4235 39.7453 80.1408 39.4747 82.0448 39.456C82.0821 40.0347 82.1195 40.604 82.1568 41.164C82.1941 41.7053 82.2315 42.2747 82.2688 42.872C81.3168 42.8907 80.4208 42.984 79.5808 43.152C78.7595 43.3013 78.0035 43.544 77.3128 43.88C76.6408 44.216 76.0528 44.6547 75.5488 45.196C75.0448 45.7187 74.6528 46.3627 74.3728 47.128C74.7835 46.9413 75.2035 46.8107 75.6328 46.736C76.0621 46.6613 76.4635 46.624 76.8368 46.624ZM94.6269 53.288C94.6269 52.7467 94.5055 52.2707 94.2629 51.86C94.0202 51.4307 93.6002 51.076 93.0029 50.796C92.4055 50.516 91.6029 50.3013 90.5949 50.152C89.5869 50.0027 88.3175 49.928 86.7869 49.928C86.9922 48.192 87.1602 46.428 87.2909 44.636C87.4215 42.844 87.5242 41.164 87.5989 39.596H98.0989V43.096H91.0989C91.0615 43.768 91.0149 44.4213 90.9589 45.056C90.9215 45.672 90.8749 46.2133 90.8189 46.68C93.5442 46.8667 95.5509 47.5107 96.8389 48.612C98.1455 49.6947 98.7989 51.2067 98.7989 53.148C98.7989 54.044 98.6402 54.8747 98.3229 55.64C98.0055 56.4053 97.5295 57.068 96.8949 57.628C96.2602 58.188 95.4575 58.6267 94.4869 58.944C93.5349 59.2613 92.4149 59.42 91.1269 59.42C90.6229 59.42 90.0909 59.3827 89.5309 59.308C88.9895 59.252 88.4575 59.168 87.9349 59.056C87.4309 58.9627 86.9735 58.86 86.5629 58.748C86.1522 58.636 85.8349 58.524 85.6109 58.412L86.3669 54.968C86.8335 55.1733 87.4495 55.3787 88.2149 55.584C88.9802 55.7707 89.8949 55.864 90.9589 55.864C92.2469 55.864 93.1802 55.612 93.7589 55.108C94.3375 54.5853 94.6269 53.9787 94.6269 53.288Z" fill="#1A344B"/>
<path d="M35.819 79.386C35.819 78.5107 35.9403 77.7393 36.183 77.072C36.4257 76.396 36.768 75.8283 37.21 75.369C37.6607 74.9097 38.2023 74.563 38.835 74.329C39.4763 74.0863 40.1957 73.9607 40.993 73.952L41.084 74.966C40.5727 74.9747 40.1047 75.031 39.68 75.135C39.264 75.239 38.8913 75.4037 38.562 75.629C38.2327 75.8543 37.9553 76.149 37.73 76.513C37.5047 76.8683 37.3357 77.3103 37.223 77.839C37.4483 77.735 37.6997 77.6483 37.977 77.579C38.263 77.5097 38.5577 77.475 38.861 77.475C39.3723 77.475 39.8057 77.553 40.161 77.709C40.5163 77.865 40.8067 78.073 41.032 78.333C41.2573 78.5843 41.4177 78.879 41.513 79.217C41.617 79.5463 41.669 79.893 41.669 80.257C41.669 80.5863 41.6127 80.9243 41.5 81.271C41.3873 81.6177 41.214 81.934 40.98 82.22C40.7547 82.506 40.4643 82.74 40.109 82.922C39.7537 83.104 39.3333 83.195 38.848 83.195C37.86 83.195 37.106 82.857 36.586 82.181C36.0747 81.505 35.819 80.5733 35.819 79.386ZM38.731 78.463C38.4277 78.463 38.146 78.4933 37.886 78.554C37.626 78.606 37.366 78.6883 37.106 78.801C37.0973 78.8963 37.0887 78.996 37.08 79.1C37.08 79.1953 37.08 79.2907 37.08 79.386C37.08 79.7673 37.106 80.127 37.158 80.465C37.21 80.803 37.301 81.102 37.431 81.362C37.5697 81.6133 37.7517 81.817 37.977 81.973C38.2023 82.1203 38.4883 82.194 38.835 82.194C39.121 82.194 39.3637 82.1333 39.563 82.012C39.7623 81.8907 39.927 81.7347 40.057 81.544C40.187 81.3533 40.278 81.1497 40.33 80.933C40.3907 80.7077 40.421 80.491 40.421 80.283C40.421 79.6937 40.278 79.243 39.992 78.931C39.7147 78.619 39.2943 78.463 38.731 78.463ZM48.4089 76.292C48.4089 76.604 48.3439 76.9073 48.2139 77.202C48.0926 77.488 47.9279 77.774 47.7199 78.06C47.5119 78.3373 47.2779 78.6147 47.0179 78.892C46.7579 79.1607 46.4979 79.425 46.2379 79.685C46.0906 79.8323 45.9172 80.0057 45.7179 80.205C45.5272 80.4043 45.3452 80.6123 45.1719 80.829C44.9986 81.0457 44.8512 81.2537 44.7299 81.453C44.6172 81.6523 44.5609 81.8257 44.5609 81.973H48.7079V83H43.2479C43.2392 82.948 43.2349 82.896 43.2349 82.844C43.2349 82.792 43.2349 82.7443 43.2349 82.701C43.2349 82.2937 43.2999 81.9167 43.4299 81.57C43.5686 81.2147 43.7462 80.881 43.9629 80.569C44.1796 80.257 44.4222 79.9623 44.6909 79.685C44.9596 79.4077 45.2239 79.139 45.4839 78.879C45.7006 78.671 45.9042 78.4673 46.0949 78.268C46.2942 78.06 46.4676 77.8563 46.6149 77.657C46.7709 77.449 46.8922 77.2367 46.9789 77.02C47.0742 76.8033 47.1219 76.5737 47.1219 76.331C47.1219 76.071 47.0786 75.85 46.9919 75.668C46.9139 75.486 46.8056 75.3343 46.6669 75.213C46.5282 75.0917 46.3636 75.005 46.1729 74.953C45.9909 74.8923 45.7959 74.862 45.5879 74.862C45.3366 74.862 45.1069 74.8967 44.8989 74.966C44.6909 75.0353 44.5046 75.1177 44.3399 75.213C44.1752 75.2997 44.0366 75.395 43.9239 75.499C43.8112 75.5943 43.7246 75.668 43.6639 75.72L43.0659 74.862C43.1439 74.7753 43.2609 74.6713 43.4169 74.55C43.5729 74.42 43.7592 74.2987 43.9759 74.186C44.1926 74.0733 44.4352 73.978 44.7039 73.9C44.9726 73.822 45.2629 73.783 45.5749 73.783C46.5196 73.783 47.2259 74.004 47.6939 74.446C48.1706 74.8793 48.4089 75.4947 48.4089 76.292ZM50.8848 75.85C51.3788 75.6593 51.8598 75.4167 52.3278 75.122C52.7958 74.8187 53.2248 74.4417 53.6148 73.991H54.4728V83H53.2638V75.668C53.1598 75.7633 53.0298 75.863 52.8738 75.967C52.7264 76.071 52.5618 76.1707 52.3798 76.266C52.2064 76.3613 52.0201 76.4523 51.8208 76.539C51.6301 76.6257 51.4438 76.6993 51.2618 76.76L50.8848 75.85Z" fill="#20BF55"/>
<path fill-rule="evenodd" clip-rule="evenodd" d="M23.8656 72.1345C22.5078 71.8644 21.1003 72.003 19.8212 72.5328C18.5421 73.0627 17.4489 73.9599 16.6797 75.111C15.9105 76.2622 15.5 77.6155 15.5 79L14.25 79L16.25 81.5L18.25 79L17 79C17 77.9122 17.3226 76.8488 17.9269 75.9444C18.5313 75.0399 19.3902 74.3349 20.3952 73.9187C21.4002 73.5024 22.5061 73.3935 23.573 73.6057C24.6399 73.8179 25.6199 74.3417 26.3891 75.1109C27.1583 75.8801 27.6821 76.8601 27.8943 77.927C28.1065 78.9939 27.9976 80.0998 27.5813 81.1048C27.1651 82.1098 26.4601 82.9687 25.5556 83.5731C24.6512 84.1774 23.5878 84.5 22.5 84.5V86C23.8845 86 25.2378 85.5895 26.389 84.8203C27.5401 84.0511 28.4373 82.9579 28.9672 81.6788C29.497 80.3997 29.6356 78.9922 29.3655 77.6344C29.0954 76.2765 28.4287 75.0292 27.4497 74.0503C26.4708 73.0713 25.2235 72.4046 23.8656 72.1345Z" fill="#20BF55"/>
<path d="M20.5 78.9075L22 80.4075L25 77.4075" stroke="#20BF55"/>
<path d="M90.209 75.85C90.703 75.6593 91.184 75.4167 91.652 75.122C92.12 74.8187 92.549 74.4417 92.939 73.991H93.797V83H92.588V75.668C92.484 75.7633 92.354 75.863 92.198 75.967C92.0507 76.071 91.886 76.1707 91.704 76.266C91.5307 76.3613 91.3443 76.4523 91.145 76.539C90.9543 76.6257 90.768 76.6993 90.586 76.76L90.209 75.85ZM98.4569 83C98.5089 82.3067 98.6302 81.5787 98.8209 80.816C99.0202 80.0447 99.2629 79.2993 99.5489 78.58C99.8349 77.852 100.147 77.1803 100.485 76.565C100.832 75.941 101.17 75.434 101.499 75.044H97.1179V73.991H102.851V74.992C102.565 75.3213 102.249 75.7763 101.902 76.357C101.555 76.929 101.226 77.5747 100.914 78.294C100.611 79.0047 100.346 79.7673 100.121 80.582C99.9042 81.388 99.7699 82.194 99.7179 83H98.4569ZM105.99 81.518C105.998 81.5873 106.003 81.6567 106.003 81.726C106.003 81.7867 106.003 81.8517 106.003 81.921C106.003 82.467 105.92 83.0043 105.756 83.533C105.6 84.0703 105.383 84.5817 105.106 85.067L104.17 84.768C104.386 84.326 104.529 83.8753 104.599 83.416C104.668 82.9653 104.703 82.5407 104.703 82.142C104.703 82.0293 104.698 81.921 104.69 81.817C104.69 81.713 104.685 81.6133 104.677 81.518H105.99ZM108.994 83C109.046 82.3067 109.167 81.5787 109.358 80.816C109.557 80.0447 109.8 79.2993 110.086 78.58C110.372 77.852 110.684 77.1803 111.022 76.565C111.369 75.941 111.707 75.434 112.036 75.044H107.655V73.991H113.388V74.992C113.102 75.3213 112.786 75.7763 112.439 76.357C112.092 76.929 111.763 77.5747 111.451 78.294C111.148 79.0047 110.883 79.7673 110.658 80.582C110.441 81.388 110.307 82.194 110.255 83H108.994ZM114.733 79.88C114.898 79.4987 115.123 79.0567 115.409 78.554C115.695 78.0427 116.016 77.5183 116.371 76.981C116.735 76.4437 117.121 75.915 117.528 75.395C117.944 74.875 118.36 74.407 118.776 73.991H119.933V79.711H120.999V80.699H119.933V83H118.763V80.699H114.733V79.88ZM118.763 75.421C118.503 75.6983 118.239 76.0103 117.97 76.357C117.71 76.695 117.454 77.0503 117.203 77.423C116.952 77.7957 116.713 78.177 116.488 78.567C116.271 78.957 116.076 79.3383 115.903 79.711H118.763V75.421ZM122.071 79.88C122.235 79.4987 122.461 79.0567 122.747 78.554C123.033 78.0427 123.353 77.5183 123.709 76.981C124.073 76.4437 124.458 75.915 124.866 75.395C125.282 74.875 125.698 74.407 126.114 73.991H127.271V79.711H128.337V80.699H127.271V83H126.101V80.699H122.071V79.88ZM126.101 75.421C125.841 75.6983 125.576 76.0103 125.308 76.357C125.048 76.695 124.792 77.0503 124.541 77.423C124.289 77.7957 124.051 78.177 123.826 78.567C123.609 78.957 123.414 79.3383 123.241 79.711H126.101V75.421Z" fill="#FF0C46"/>
<path fill-rule="evenodd" clip-rule="evenodd" d="M77.8656 72.1345C76.5078 71.8644 75.1003 72.003 73.8212 72.5328C72.5421 73.0627 71.4489 73.9599 70.6797 75.111C69.9105 76.2622 69.5 77.6155 69.5 79L68.25 79L70.25 81.5L72.25 79L71 79C71 77.9122 71.3226 76.8488 71.9269 75.9444C72.5313 75.0399 73.3902 74.3349 74.3952 73.9187C75.4002 73.5024 76.5061 73.3935 77.573 73.6057C78.6399 73.8179 79.6199 74.3417 80.3891 75.1109C81.1583 75.8801 81.6821 76.8601 81.8943 77.927C82.1065 78.9939 81.9976 80.0998 81.5813 81.1048C81.1651 82.1098 80.4601 82.9687 79.5556 83.5731C78.6512 84.1774 77.5878 84.5 76.5 84.5V86C77.8845 86 79.2378 85.5895 80.389 84.8203C81.5401 84.0511 82.4373 82.9579 82.9672 81.6788C83.497 80.3997 83.6356 78.9922 83.3655 77.6344C83.0954 76.2765 82.4287 75.0292 81.4497 74.0503C80.4708 73.0713 79.2235 72.4046 77.8656 72.1345Z" fill="#FF0C46"/>
<rect x="74.3787" y="77.9933" width="1" height="5" transform="rotate(-45 74.3787 77.9933)" fill="#FF0C46"/>
<rect x="74.3787" y="80.8217" width="5" height="1" transform="rotate(-45 74.3787 80.8217)" fill="#FF0C46"/>
<path d="M22.16 26C22.05 25.64 21.925 25.27 21.785 24.89C21.655 24.51 21.525 24.13 21.395 23.75H17.345C17.215 24.13 17.08 24.51 16.94 24.89C16.81 25.27 16.69 25.64 16.58 26H14.15C14.54 24.88 14.91 23.845 15.26 22.895C15.61 21.945 15.95 21.05 16.28 20.21C16.62 19.37 16.95 18.575 17.27 17.825C17.6 17.065 17.94 16.325 18.29 15.605H20.525C20.865 16.325 21.2 17.065 21.53 17.825C21.86 18.575 22.19 19.37 22.52 20.21C22.86 21.05 23.205 21.945 23.555 22.895C23.905 23.845 24.275 24.88 24.665 26H22.16ZM19.355 17.96C19.305 18.11 19.23 18.315 19.13 18.575C19.03 18.835 18.915 19.135 18.785 19.475C18.655 19.815 18.51 20.19 18.35 20.6C18.2 21.01 18.045 21.44 17.885 21.89H20.84C20.68 21.44 20.525 21.01 20.375 20.6C20.225 20.19 20.08 19.815 19.94 19.475C19.81 19.135 19.695 18.835 19.595 18.575C19.495 18.315 19.415 18.11 19.355 17.96ZM25.3244 22.055C25.3244 21.485 25.4144 20.95 25.5944 20.45C25.7844 19.94 26.0544 19.5 26.4044 19.13C26.7544 18.75 27.1794 18.45 27.6794 18.23C28.1794 18.01 28.7494 17.9 29.3894 17.9C29.8094 17.9 30.1944 17.94 30.5444 18.02C30.8944 18.09 31.2344 18.195 31.5644 18.335L31.0994 20.12C30.8894 20.04 30.6594 19.97 30.4094 19.91C30.1594 19.85 29.8794 19.82 29.5694 19.82C28.9094 19.82 28.4144 20.025 28.0844 20.435C27.7644 20.845 27.6044 21.385 27.6044 22.055C27.6044 22.765 27.7544 23.315 28.0544 23.705C28.3644 24.095 28.8994 24.29 29.6594 24.29C29.9294 24.29 30.2194 24.265 30.5294 24.215C30.8394 24.165 31.1244 24.085 31.3844 23.975L31.6994 25.805C31.4394 25.915 31.1144 26.01 30.7244 26.09C30.3344 26.17 29.9044 26.21 29.4344 26.21C28.7144 26.21 28.0944 26.105 27.5744 25.895C27.0544 25.675 26.6244 25.38 26.2844 25.01C25.9544 24.64 25.7094 24.205 25.5494 23.705C25.3994 23.195 25.3244 22.645 25.3244 22.055ZM33.1244 16.145L35.3594 15.785V18.11H38.0444V19.97H35.3594V22.745C35.3594 23.215 35.4394 23.59 35.5994 23.87C35.7694 24.15 36.1044 24.29 36.6044 24.29C36.8444 24.29 37.0894 24.27 37.3394 24.23C37.5994 24.18 37.8344 24.115 38.0444 24.035L38.3594 25.775C38.0894 25.885 37.7894 25.98 37.4594 26.06C37.1294 26.14 36.7244 26.18 36.2444 26.18C35.6344 26.18 35.1294 26.1 34.7294 25.94C34.3294 25.77 34.0094 25.54 33.7694 25.25C33.5294 24.95 33.3594 24.59 33.2594 24.17C33.1694 23.75 33.1244 23.285 33.1244 22.775V16.145ZM42.0995 26H39.8645V18.11H42.0995V26ZM42.3095 15.83C42.3095 16.24 42.1745 16.565 41.9045 16.805C41.6445 17.035 41.3345 17.15 40.9745 17.15C40.6145 17.15 40.2995 17.035 40.0295 16.805C39.7695 16.565 39.6395 16.24 39.6395 15.83C39.6395 15.42 39.7695 15.1 40.0295 14.87C40.2995 14.63 40.6145 14.51 40.9745 14.51C41.3345 14.51 41.6445 14.63 41.9045 14.87C42.1745 15.1 42.3095 15.42 42.3095 15.83ZM46.111 26C45.601 25 45.081 23.83 44.551 22.49C44.031 21.15 43.536 19.69 43.066 18.11H45.436C45.536 18.5 45.651 18.925 45.781 19.385C45.921 19.835 46.061 20.295 46.201 20.765C46.351 21.225 46.496 21.675 46.636 22.115C46.786 22.555 46.931 22.955 47.071 23.315C47.201 22.955 47.341 22.555 47.491 22.115C47.641 21.675 47.786 21.225 47.926 20.765C48.076 20.295 48.216 19.835 48.346 19.385C48.486 18.925 48.606 18.5 48.706 18.11H51.016C50.546 19.69 50.046 21.15 49.516 22.49C48.996 23.83 48.481 25 47.971 26H46.111ZM51.633 22.115C51.633 21.415 51.738 20.805 51.948 20.285C52.168 19.755 52.453 19.315 52.803 18.965C53.153 18.615 53.553 18.35 54.003 18.17C54.463 17.99 54.933 17.9 55.413 17.9C56.533 17.9 57.418 18.245 58.068 18.935C58.718 19.615 59.043 20.62 59.043 21.95C59.043 22.08 59.038 22.225 59.028 22.385C59.018 22.535 59.008 22.67 58.998 22.79H53.928C53.978 23.25 54.193 23.615 54.573 23.885C54.953 24.155 55.463 24.29 56.103 24.29C56.513 24.29 56.913 24.255 57.303 24.185C57.703 24.105 58.028 24.01 58.278 23.9L58.578 25.715C58.458 25.775 58.298 25.835 58.098 25.895C57.898 25.955 57.673 26.005 57.423 26.045C57.183 26.095 56.923 26.135 56.643 26.165C56.363 26.195 56.083 26.21 55.803 26.21C55.093 26.21 54.473 26.105 53.943 25.895C53.423 25.685 52.988 25.4 52.638 25.04C52.298 24.67 52.043 24.235 51.873 23.735C51.713 23.235 51.633 22.695 51.633 22.115ZM56.883 21.26C56.873 21.07 56.838 20.885 56.778 20.705C56.728 20.525 56.643 20.365 56.523 20.225C56.413 20.085 56.268 19.97 56.088 19.88C55.918 19.79 55.703 19.745 55.443 19.745C55.193 19.745 54.978 19.79 54.798 19.88C54.618 19.96 54.468 20.07 54.348 20.21C54.228 20.35 54.133 20.515 54.063 20.705C54.003 20.885 53.958 21.07 53.928 21.26H56.883ZM69.1263 20.09C68.9263 20.04 68.6913 19.99 68.4213 19.94C68.1513 19.88 67.8613 19.85 67.5513 19.85C67.4113 19.85 67.2413 19.865 67.0413 19.895C66.8513 19.915 66.7063 19.94 66.6063 19.97V26H64.3713V18.53C64.7713 18.39 65.2413 18.26 65.7813 18.14C66.3313 18.01 66.9413 17.945 67.6113 17.945C67.7313 17.945 67.8763 17.955 68.0463 17.975C68.2163 17.985 68.3863 18.005 68.5563 18.035C68.7263 18.055 68.8963 18.085 69.0663 18.125C69.2363 18.155 69.3813 18.195 69.5013 18.245L69.1263 20.09ZM70.1779 22.115C70.1779 21.415 70.2829 20.805 70.4929 20.285C70.7129 19.755 70.9979 19.315 71.3479 18.965C71.6979 18.615 72.0979 18.35 72.5479 18.17C73.0079 17.99 73.4779 17.9 73.9579 17.9C75.0779 17.9 75.9629 18.245 76.6129 18.935C77.2629 19.615 77.5879 20.62 77.5879 21.95C77.5879 22.08 77.5829 22.225 77.5729 22.385C77.5629 22.535 77.5529 22.67 77.5429 22.79H72.4729C72.5229 23.25 72.7379 23.615 73.1179 23.885C73.4979 24.155 74.0079 24.29 74.6479 24.29C75.0579 24.29 75.4579 24.255 75.8479 24.185C76.2479 24.105 76.5729 24.01 76.8229 23.9L77.1229 25.715C77.0029 25.775 76.8429 25.835 76.6429 25.895C76.4429 25.955 76.2179 26.005 75.9679 26.045C75.7279 26.095 75.4679 26.135 75.1879 26.165C74.9079 26.195 74.6279 26.21 74.3479 26.21C73.6379 26.21 73.0179 26.105 72.4879 25.895C71.9679 25.685 71.5329 25.4 71.1829 25.04C70.8429 24.67 70.5879 24.235 70.4179 23.735C70.2579 23.235 70.1779 22.695 70.1779 22.115ZM75.4279 21.26C75.4179 21.07 75.3829 20.885 75.3229 20.705C75.2729 20.525 75.1879 20.365 75.0679 20.225C74.9579 20.085 74.8129 19.97 74.6329 19.88C74.4629 19.79 74.2479 19.745 73.9879 19.745C73.7379 19.745 73.5229 19.79 73.3429 19.88C73.1629 19.96 73.0129 20.07 72.8929 20.21C72.7729 20.35 72.6779 20.515 72.6079 20.705C72.5479 20.885 72.5029 21.07 72.4729 21.26H75.4279ZM81.2177 21.8C81.2177 23.05 81.7227 23.675 82.7327 23.675C82.9627 23.675 83.1777 23.645 83.3777 23.585C83.5777 23.525 83.7477 23.455 83.8877 23.375V19.805C83.7777 19.785 83.6477 19.77 83.4977 19.76C83.3477 19.74 83.1727 19.73 82.9727 19.73C82.3827 19.73 81.9427 19.925 81.6527 20.315C81.3627 20.705 81.2177 21.2 81.2177 21.8ZM86.1227 25.01C86.1227 26.3 85.7927 27.255 85.1327 27.875C84.4827 28.505 83.4727 28.82 82.1027 28.82C81.6227 28.82 81.1427 28.775 80.6627 28.685C80.1827 28.605 79.7377 28.495 79.3277 28.355L79.7177 26.48C80.0677 26.62 80.4327 26.73 80.8127 26.81C81.2027 26.89 81.6427 26.93 82.1327 26.93C82.7727 26.93 83.2227 26.79 83.4827 26.51C83.7527 26.23 83.8877 25.87 83.8877 25.43V25.145C83.6477 25.255 83.3977 25.34 83.1377 25.4C82.8877 25.45 82.6127 25.475 82.3127 25.475C81.2227 25.475 80.3877 25.155 79.8077 24.515C79.2277 23.865 78.9377 22.96 78.9377 21.8C78.9377 21.22 79.0277 20.695 79.2077 20.225C79.3877 19.745 79.6477 19.335 79.9877 18.995C80.3377 18.655 80.7627 18.395 81.2627 18.215C81.7627 18.025 82.3277 17.93 82.9577 17.93C83.2277 17.93 83.5027 17.945 83.7827 17.975C84.0727 17.995 84.3577 18.025 84.6377 18.065C84.9177 18.105 85.1827 18.155 85.4327 18.215C85.6927 18.265 85.9227 18.32 86.1227 18.38V25.01ZM94.9539 25.73C94.5739 25.84 94.0839 25.94 93.4839 26.03C92.8839 26.13 92.2539 26.18 91.5939 26.18C90.9239 26.18 90.3639 26.09 89.9139 25.91C89.4739 25.73 89.1239 25.48 88.8639 25.16C88.6039 24.83 88.4189 24.44 88.3089 23.99C88.1989 23.54 88.1439 23.045 88.1439 22.505V18.11H90.3789V22.235C90.3789 22.955 90.4739 23.475 90.6639 23.795C90.8539 24.115 91.2089 24.275 91.7289 24.275C91.8889 24.275 92.0589 24.27 92.2389 24.26C92.4189 24.24 92.5789 24.22 92.7189 24.2V18.11H94.9539V25.73ZM100.202 26.15C99.552 26.14 99.022 26.07 98.612 25.94C98.212 25.81 97.892 25.63 97.652 25.4C97.422 25.16 97.262 24.875 97.172 24.545C97.092 24.205 97.052 23.825 97.052 23.405V14.72L99.287 14.36V22.955C99.287 23.155 99.302 23.335 99.332 23.495C99.362 23.655 99.417 23.79 99.497 23.9C99.587 24.01 99.712 24.1 99.872 24.17C100.032 24.24 100.247 24.285 100.517 24.305L100.202 26.15ZM105.033 24.44C105.253 24.44 105.463 24.435 105.663 24.425C105.863 24.415 106.023 24.4 106.143 24.38V22.685C106.053 22.665 105.918 22.645 105.738 22.625C105.558 22.605 105.393 22.595 105.243 22.595C105.033 22.595 104.833 22.61 104.643 22.64C104.463 22.66 104.303 22.705 104.163 22.775C104.023 22.845 103.913 22.94 103.833 23.06C103.753 23.18 103.713 23.33 103.713 23.51C103.713 23.86 103.828 24.105 104.058 24.245C104.298 24.375 104.623 24.44 105.033 24.44ZM104.853 17.9C105.513 17.9 106.063 17.975 106.503 18.125C106.943 18.275 107.293 18.49 107.553 18.77C107.823 19.05 108.013 19.39 108.123 19.79C108.233 20.19 108.288 20.635 108.288 21.125V25.775C107.968 25.845 107.523 25.925 106.953 26.015C106.383 26.115 105.693 26.165 104.883 26.165C104.373 26.165 103.908 26.12 103.488 26.03C103.078 25.94 102.723 25.795 102.423 25.595C102.123 25.385 101.893 25.115 101.733 24.785C101.573 24.455 101.493 24.05 101.493 23.57C101.493 23.11 101.583 22.72 101.763 22.4C101.953 22.08 102.203 21.825 102.513 21.635C102.823 21.445 103.178 21.31 103.578 21.23C103.978 21.14 104.393 21.095 104.823 21.095C105.113 21.095 105.368 21.11 105.588 21.14C105.818 21.16 106.003 21.19 106.143 21.23V21.02C106.143 20.64 106.028 20.335 105.798 20.105C105.568 19.875 105.168 19.76 104.598 19.76C104.218 19.76 103.843 19.79 103.473 19.85C103.103 19.9 102.783 19.975 102.513 20.075L102.228 18.275C102.358 18.235 102.518 18.195 102.708 18.155C102.908 18.105 103.123 18.065 103.353 18.035C103.583 17.995 103.823 17.965 104.073 17.945C104.333 17.915 104.593 17.9 104.853 17.9ZM115.064 20.09C114.864 20.04 114.629 19.99 114.359 19.94C114.089 19.88 113.799 19.85 113.489 19.85C113.349 19.85 113.179 19.865 112.979 19.895C112.789 19.915 112.644 19.94 112.544 19.97V26H110.309V18.53C110.709 18.39 111.179 18.26 111.719 18.14C112.269 18.01 112.879 17.945 113.549 17.945C113.669 17.945 113.814 17.955 113.984 17.975C114.154 17.985 114.324 18.005 114.494 18.035C114.664 18.055 114.834 18.085 115.004 18.125C115.174 18.155 115.319 18.195 115.439 18.245L115.064 20.09ZM122.505 24.395C122.915 24.395 123.205 24.355 123.375 24.275C123.545 24.195 123.63 24.04 123.63 23.81C123.63 23.63 123.52 23.475 123.3 23.345C123.08 23.205 122.745 23.05 122.295 22.88C121.945 22.75 121.625 22.615 121.335 22.475C121.055 22.335 120.815 22.17 120.615 21.98C120.415 21.78 120.26 21.545 120.15 21.275C120.04 21.005 119.985 20.68 119.985 20.3C119.985 19.56 120.26 18.975 120.81 18.545C121.36 18.115 122.115 17.9 123.075 17.9C123.555 17.9 124.015 17.945 124.455 18.035C124.895 18.115 125.245 18.205 125.505 18.305L125.115 20.045C124.855 19.955 124.57 19.875 124.26 19.805C123.96 19.735 123.62 19.7 123.24 19.7C122.54 19.7 122.19 19.895 122.19 20.285C122.19 20.375 122.205 20.455 122.235 20.525C122.265 20.595 122.325 20.665 122.415 20.735C122.505 20.795 122.625 20.865 122.775 20.945C122.935 21.015 123.135 21.095 123.375 21.185C123.865 21.365 124.27 21.545 124.59 21.725C124.91 21.895 125.16 22.085 125.34 22.295C125.53 22.495 125.66 22.72 125.73 22.97C125.81 23.22 125.85 23.51 125.85 23.84C125.85 24.62 125.555 25.21 124.965 25.61C124.385 26.01 123.56 26.21 122.49 26.21C121.79 26.21 121.205 26.15 120.735 26.03C120.275 25.91 119.955 25.81 119.775 25.73L120.15 23.915C120.53 24.065 120.92 24.185 121.32 24.275C121.72 24.355 122.115 24.395 122.505 24.395ZM134.256 25.73C133.876 25.84 133.386 25.94 132.786 26.03C132.186 26.13 131.556 26.18 130.896 26.18C130.226 26.18 129.666 26.09 129.216 25.91C128.776 25.73 128.426 25.48 128.166 25.16C127.906 24.83 127.721 24.44 127.611 23.99C127.501 23.54 127.446 23.045 127.446 22.505V18.11H129.681V22.235C129.681 22.955 129.776 23.475 129.966 23.795C130.156 24.115 130.511 24.275 131.031 24.275C131.191 24.275 131.361 24.27 131.541 24.26C131.721 24.24 131.881 24.22 132.021 24.2V18.11H134.256V25.73ZM141.409 21.995C141.409 20.555 140.879 19.835 139.819 19.835C139.589 19.835 139.359 19.865 139.129 19.925C138.909 19.985 138.729 20.06 138.589 20.15V24.215C138.699 24.235 138.839 24.255 139.009 24.275C139.179 24.285 139.364 24.29 139.564 24.29C140.174 24.29 140.634 24.08 140.944 23.66C141.254 23.24 141.409 22.685 141.409 21.995ZM143.689 22.055C143.689 22.685 143.594 23.255 143.404 23.765C143.224 24.275 142.959 24.71 142.609 25.07C142.259 25.43 141.829 25.71 141.319 25.91C140.809 26.1 140.229 26.195 139.579 26.195C139.309 26.195 139.024 26.18 138.724 26.15C138.434 26.13 138.144 26.1 137.854 26.06C137.574 26.02 137.304 25.975 137.044 25.925C136.784 25.865 136.554 25.805 136.354 25.745V14.72L138.589 14.36V18.29C138.839 18.18 139.099 18.095 139.369 18.035C139.639 17.975 139.929 17.945 140.239 17.945C140.799 17.945 141.294 18.045 141.724 18.245C142.154 18.435 142.514 18.71 142.804 19.07C143.094 19.43 143.314 19.865 143.464 20.375C143.614 20.875 143.689 21.435 143.689 22.055ZM147.671 24.395C148.081 24.395 148.371 24.355 148.541 24.275C148.711 24.195 148.796 24.04 148.796 23.81C148.796 23.63 148.686 23.475 148.466 23.345C148.246 23.205 147.911 23.05 147.461 22.88C147.111 22.75 146.791 22.615 146.501 22.475C146.221 22.335 145.981 22.17 145.781 21.98C145.581 21.78 145.426 21.545 145.316 21.275C145.206 21.005 145.151 20.68 145.151 20.3C145.151 19.56 145.426 18.975 145.976 18.545C146.526 18.115 147.281 17.9 148.241 17.9C148.721 17.9 149.181 17.945 149.621 18.035C150.061 18.115 150.411 18.205 150.671 18.305L150.281 20.045C150.021 19.955 149.736 19.875 149.426 19.805C149.126 19.735 148.786 19.7 148.406 19.7C147.706 19.7 147.356 19.895 147.356 20.285C147.356 20.375 147.371 20.455 147.401 20.525C147.431 20.595 147.491 20.665 147.581 20.735C147.671 20.795 147.791 20.865 147.941 20.945C148.101 21.015 148.301 21.095 148.541 21.185C149.031 21.365 149.436 21.545 149.756 21.725C150.076 21.895 150.326 22.085 150.506 22.295C150.696 22.495 150.826 22.72 150.896 22.97C150.976 23.22 151.016 23.51 151.016 23.84C151.016 24.62 150.721 25.21 150.131 25.61C149.551 26.01 148.726 26.21 147.656 26.21C146.956 26.21 146.371 26.15 145.901 26.03C145.441 25.91 145.121 25.81 144.941 25.73L145.316 23.915C145.696 24.065 146.086 24.185 146.486 24.275C146.886 24.355 147.281 24.395 147.671 24.395ZM152.312 22.055C152.312 21.485 152.402 20.95 152.582 20.45C152.772 19.94 153.042 19.5 153.392 19.13C153.742 18.75 154.167 18.45 154.667 18.23C155.167 18.01 155.737 17.9 156.377 17.9C156.797 17.9 157.182 17.94 157.532 18.02C157.882 18.09 158.222 18.195 158.552 18.335L158.087 20.12C157.877 20.04 157.647 19.97 157.397 19.91C157.147 19.85 156.867 19.82 156.557 19.82C155.897 19.82 155.402 20.025 155.072 20.435C154.752 20.845 154.592 21.385 154.592 22.055C154.592 22.765 154.742 23.315 155.042 23.705C155.352 24.095 155.887 24.29 156.647 24.29C156.917 24.29 157.207 24.265 157.517 24.215C157.827 24.165 158.112 24.085 158.372 23.975L158.687 25.805C158.427 25.915 158.102 26.01 157.712 26.09C157.322 26.17 156.892 26.21 156.422 26.21C155.702 26.21 155.082 26.105 154.562 25.895C154.042 25.675 153.612 25.38 153.272 25.01C152.942 24.64 152.697 24.205 152.537 23.705C152.387 23.195 152.312 22.645 152.312 22.055ZM164.942 20.09C164.742 20.04 164.507 19.99 164.237 19.94C163.967 19.88 163.677 19.85 163.367 19.85C163.227 19.85 163.057 19.865 162.857 19.895C162.667 19.915 162.522 19.94 162.422 19.97V26H160.187V18.53C160.587 18.39 161.057 18.26 161.597 18.14C162.147 18.01 162.757 17.945 163.427 17.945C163.547 17.945 163.692 17.955 163.862 17.975C164.032 17.985 164.202 18.005 164.372 18.035C164.542 18.055 164.712 18.085 164.882 18.125C165.052 18.155 165.197 18.195 165.317 18.245L164.942 20.09ZM168.75 26H166.515V18.11H168.75V26ZM168.96 15.83C168.96 16.24 168.825 16.565 168.555 16.805C168.295 17.035 167.985 17.15 167.625 17.15C167.265 17.15 166.95 17.035 166.68 16.805C166.42 16.565 166.29 16.24 166.29 15.83C166.29 15.42 166.42 15.1 166.68 14.87C166.95 14.63 167.265 14.51 167.625 14.51C167.985 14.51 168.295 14.63 168.555 14.87C168.825 15.1 168.96 15.42 168.96 15.83ZM175.906 22.115C175.906 21.425 175.751 20.875 175.441 20.465C175.131 20.045 174.671 19.835 174.061 19.835C173.861 19.835 173.676 19.845 173.506 19.865C173.336 19.875 173.196 19.89 173.086 19.91V23.945C173.226 24.035 173.406 24.11 173.626 24.17C173.856 24.23 174.086 24.26 174.316 24.26C175.376 24.26 175.906 23.545 175.906 22.115ZM178.186 22.055C178.186 22.665 178.111 23.22 177.961 23.72C177.811 24.22 177.591 24.65 177.301 25.01C177.011 25.37 176.651 25.65 176.221 25.85C175.791 26.05 175.296 26.15 174.736 26.15C174.426 26.15 174.136 26.12 173.866 26.06C173.596 26 173.336 25.915 173.086 25.805V28.775H170.851V18.38C171.051 18.32 171.281 18.265 171.541 18.215C171.801 18.155 172.071 18.105 172.351 18.065C172.641 18.025 172.931 17.995 173.221 17.975C173.521 17.945 173.806 17.93 174.076 17.93C174.726 17.93 175.306 18.03 175.816 18.23C176.326 18.42 176.756 18.695 177.106 19.055C177.456 19.405 177.721 19.835 177.901 20.345C178.091 20.855 178.186 21.425 178.186 22.055ZM179.829 16.145L182.064 15.785V18.11H184.749V19.97H182.064V22.745C182.064 23.215 182.144 23.59 182.304 23.87C182.474 24.15 182.809 24.29 183.309 24.29C183.549 24.29 183.794 24.27 184.044 24.23C184.304 24.18 184.539 24.115 184.749 24.035L185.064 25.775C184.794 25.885 184.494 25.98 184.164 26.06C183.834 26.14 183.429 26.18 182.949 26.18C182.339 26.18 181.834 26.1 181.434 25.94C181.034 25.77 180.714 25.54 180.474 25.25C180.234 24.95 180.064 24.59 179.964 24.17C179.874 23.75 179.829 23.285 179.829 22.775V16.145ZM188.804 26H186.569V18.11H188.804V26ZM189.014 15.83C189.014 16.24 188.879 16.565 188.609 16.805C188.349 17.035 188.039 17.15 187.679 17.15C187.319 17.15 187.004 17.035 186.734 16.805C186.474 16.565 186.344 16.24 186.344 15.83C186.344 15.42 186.474 15.1 186.734 14.87C187.004 14.63 187.319 14.51 187.679 14.51C188.039 14.51 188.349 14.63 188.609 14.87C188.879 15.1 189.014 15.42 189.014 15.83ZM198.284 22.04C198.284 22.66 198.194 23.23 198.014 23.75C197.834 24.26 197.574 24.7 197.234 25.07C196.894 25.43 196.484 25.71 196.004 25.91C195.534 26.11 195.004 26.21 194.414 26.21C193.834 26.21 193.304 26.11 192.824 25.91C192.354 25.71 191.949 25.43 191.609 25.07C191.269 24.7 191.004 24.26 190.814 23.75C190.624 23.23 190.529 22.66 190.529 22.04C190.529 21.42 190.624 20.855 190.814 20.345C191.014 19.835 191.284 19.4 191.624 19.04C191.974 18.68 192.384 18.4 192.854 18.2C193.334 18 193.854 17.9 194.414 17.9C194.984 17.9 195.504 18 195.974 18.2C196.454 18.4 196.864 18.68 197.204 19.04C197.544 19.4 197.809 19.835 197.999 20.345C198.189 20.855 198.284 21.42 198.284 22.04ZM196.004 22.04C196.004 21.35 195.864 20.81 195.584 20.42C195.314 20.02 194.924 19.82 194.414 19.82C193.904 19.82 193.509 20.02 193.229 20.42C192.949 20.81 192.809 21.35 192.809 22.04C192.809 22.73 192.949 23.28 193.229 23.69C193.509 24.09 193.904 24.29 194.414 24.29C194.924 24.29 195.314 24.09 195.584 23.69C195.864 23.28 196.004 22.73 196.004 22.04ZM200.016 18.38C200.396 18.27 200.886 18.17 201.486 18.08C202.086 17.98 202.716 17.93 203.376 17.93C204.046 17.93 204.601 18.02 205.041 18.2C205.491 18.37 205.846 18.615 206.106 18.935C206.366 19.255 206.551 19.635 206.661 20.075C206.771 20.515 206.826 21.005 206.826 21.545V26H204.591V21.815C204.591 21.095 204.496 20.585 204.306 20.285C204.116 19.985 203.761 19.835 203.241 19.835C203.081 19.835 202.911 19.845 202.731 19.865C202.551 19.875 202.391 19.89 202.251 19.91V26H200.016V18.38ZM211.114 24.395C211.524 24.395 211.814 24.355 211.984 24.275C212.154 24.195 212.239 24.04 212.239 23.81C212.239 23.63 212.129 23.475 211.909 23.345C211.689 23.205 211.354 23.05 210.904 22.88C210.554 22.75 210.234 22.615 209.944 22.475C209.664 22.335 209.424 22.17 209.224 21.98C209.024 21.78 208.869 21.545 208.759 21.275C208.649 21.005 208.594 20.68 208.594 20.3C208.594 19.56 208.869 18.975 209.419 18.545C209.969 18.115 210.724 17.9 211.684 17.9C212.164 17.9 212.624 17.945 213.064 18.035C213.504 18.115 213.854 18.205 214.114 18.305L213.724 20.045C213.464 19.955 213.179 19.875 212.869 19.805C212.569 19.735 212.229 19.7 211.849 19.7C211.149 19.7 210.799 19.895 210.799 20.285C210.799 20.375 210.814 20.455 210.844 20.525C210.874 20.595 210.934 20.665 211.024 20.735C211.114 20.795 211.234 20.865 211.384 20.945C211.544 21.015 211.744 21.095 211.984 21.185C212.474 21.365 212.879 21.545 213.199 21.725C213.519 21.895 213.769 22.085 213.949 22.295C214.139 22.495 214.269 22.72 214.339 22.97C214.419 23.22 214.459 23.51 214.459 23.84C214.459 24.62 214.164 25.21 213.574 25.61C212.994 26.01 212.169 26.21 211.099 26.21C210.399 26.21 209.814 26.15 209.344 26.03C208.884 25.91 208.564 25.81 208.384 25.73L208.759 23.915C209.139 24.065 209.529 24.185 209.929 24.275C210.329 24.355 210.724 24.395 211.114 24.395Z" fill="#1A344B"/>
<path fill-rule="evenodd" clip-rule="evenodd" d="M227 27C230.314 27 233 24.3137 233 21C233 17.6863 230.314 15 227 15C223.686 15 221 17.6863 221 21C221 24.3137 223.686 27 227 27ZM227.556 20.8315C227.391 20.9414 227.198 21 227 21H226.5V22.5H227.5V21.9365C227.675 21.8914 227.843 21.8228 228 21.7321C228.038 21.7103 228.075 21.6872 228.111 21.6629C228.44 21.4432 228.696 21.1308 228.848 20.7654C228.999 20.3999 229.039 19.9978 228.962 19.6098C228.884 19.2219 228.694 18.8655 228.414 18.5858C228.135 18.3061 227.778 18.1156 227.39 18.0384C227.002 17.9613 226.6 18.0009 226.235 18.1522C225.869 18.3036 225.557 18.56 225.337 18.8889C225.313 18.9252 225.29 18.9623 225.268 19C225.093 19.3034 225 19.6482 225 20H226C226 19.8022 226.059 19.6089 226.169 19.4444C226.278 19.28 226.435 19.1518 226.617 19.0761C226.8 19.0004 227.001 18.9806 227.195 19.0192C227.389 19.0578 227.567 19.153 227.707 19.2929C227.847 19.4327 227.942 19.6109 227.981 19.8049C228.019 19.9989 228 20.2 227.924 20.3827C227.848 20.5654 227.72 20.7216 227.556 20.8315ZM227.65 23.625C227.65 23.9702 227.37 24.25 227.025 24.25C226.68 24.25 226.4 23.9702 226.4 23.625C226.4 23.2798 226.68 23 227.025 23C227.37 23 227.65 23.2798 227.65 23.625Z" fill="#97ADC6"/>
<defs>
<filter id="filter0_d" x="0" y="0" width="263" height="103" filterUnits="userSpaceOnUse" color-interpolation-filters="sRGB">
<feFlood flood-opacity="0" result="BackgroundImageFix"/>
<feColorMatrix in="SourceAlpha" type="matrix" values="0 0 0 0 0 0 0 0 0 0 0 0 0 0 0 0 0 0 127 0"/>
<feOffset dy="2"/>
<feGaussianBlur stdDeviation="2"/>
<feColorMatrix type="matrix" values="0 0 0 0 0.914375 0 0 0 0 0.940625 0 0 0 0 0.9625 0 0 0 1 0"/>
<feBlend mode="normal" in2="BackgroundImageFix" result="effect1_dropShadow"/>
<feBlend mode="normal" in="SourceGraphic" in2="effect1_dropShadow" result="shape"/>
</filter>
</defs>
</svg>
